<?xml version="1.0" standalone="no"?>
<!DOCTYPE svg PUBLIC "-//W3C//DTD SVG 20010904//EN"
 "http://www.w3.org/TR/2001/REC-SVG-20010904/DTD/svg10.dtd">
<svg version="1.0" xmlns="http://www.w3.org/2000/svg"
 width="16.000000pt" height="16.000000pt" viewBox="0 0 16.000000 16.000000"
 preserveAspectRatio="xMidYMid meet">
<metadata>
Created by potrace 1.11, written by Peter Selinger 2001-2013
</metadata>
<g transform="translate(0.000000,16.000000) scale(0.007273,-0.007273)"
fill="#000000" stroke="none">
<path d="M1050 2148 c-14 -15 -20 -33 -18 -52 3 -33 48 2 -475 -374 -395 -283
-358 -260 -387 -249 -40 15 -76 2 -90 -33 -17 -41 -1 -76 42 -95 32 -13 34
-18 194 -497 l162 -483 -20 -22 c-16 -17 -19 -30 -14 -54 12 -63 69 -77 118
-29 l30 30 507 0 508 0 13 -24 c21 -41 88 -45 117 -7 18 24 15 69 -6 87 -18
16 -13 32 144 503 133 399 165 487 181 489 29 6 64 43 64 69 0 49 -76 93 -107
62 -8 -8 -122 69 -430 293 -401 291 -418 305 -415 334 4 38 -29 74 -68 74 -17
0 -38 -9 -50 -22z m40 -300 l0 -178 -25 -12 c-13 -6 -27 -19 -31 -30 -8 -26 5
-75 21 -82 11 -4 4 -33 -31 -140 l-46 -136 -140 0 -139 0 -26 30 c-29 35 -69
40 -100 11 -21 -19 -22 -19 -189 33 -134 43 -169 58 -175 75 -9 24 -35 3 325
262 126 90 293 210 370 265 192 138 186 141 186 -98z m560 -160 c113 -82 216
-157 228 -166 147 -106 146 -108 -47 -168 -80 -25 -156 -49 -169 -55 -18 -7
-28 -5 -44 11 -31 28 -65 25 -100 -10 l-30 -31 -136 3 -136 3 -42 129 c-42
127 -42 129 -23 149 29 31 24 71 -11 100 l-30 26 0 176 c0 172 0 176 22 184
24 8 -1 25 518 -351z m-498 -284 c21 -65 38 -122 38 -126 0 -5 -42 -8 -94 -8
l-95 0 35 103 c20 56 37 110 39 120 15 67 35 44 77 -89z m-792 -75 c74 -23
145 -44 158 -47 13 -2 28 -16 33 -31 6 -14 18 -34 26 -43 18 -20 63 -24 80 -7
9 9 41 -9 125 -71 62 -46 115 -84 117 -86 2 -2 -16 -62 -40 -135 -37 -111 -48
-133 -69 -141 -54 -20 -76 -67 -51 -107 6 -10 -17 -51 -81 -140 -117 -164
-115 -161 -141 -152 -18 7 -48 89 -183 492 -149 446 -160 485 -145 500 9 9 21
15 26 13 6 -2 71 -22 145 -45z m1642 34 c14 -16 1 -62 -146 -502 -138 -414
-165 -485 -184 -492 -19 -7 -28 1 -76 65 -141 190 -158 217 -145 232 7 8 9 27
5 47 -6 32 -22 46 -67 60 -8 3 -20 22 -27 43 -6 22 -25 81 -42 133 -16 52 -29
95 -27 96 1 1 53 39 115 85 84 61 116 80 125 71 28 -28 102 7 109 51 2 17 21
26 98 50 52 17 127 40 165 53 87 29 79 28 97 8z m-1034 -125 c-3 -7 -15 -44
-28 -83 -12 -38 -26 -74 -30 -78 -7 -8 -38 12 -167 107 -84 60 -76 66 88 66
109 0 140 -3 137 -12z m264 -78 c15 -47 27 -92 27 -100 0 -8 -37 -41 -81 -73
l-80 -59 -67 47 c-116 81 -108 59 -70 175 l33 101 105 -3 105 -3 28 -85z m268
76 c0 -14 -207 -172 -215 -164 -6 5 -55 155 -55 167 0 7 45 11 135 11 110 0
135 -3 135 -14z m-435 -327 c-12 -18 -211 -155 -222 -152 -7 3 4 49 34 138
l45 134 74 -55 c40 -31 71 -60 69 -65z m214 98 c38 -100 77 -246 67 -250 -6
-3 -60 31 -120 75 -81 60 -105 83 -96 92 11 11 132 104 138 105 1 1 6 -9 11
-22z m-67 -190 c108 -80 113 -85 114 -120 1 -45 27 -69 67 -64 26 3 35 -6 96
-87 127 -172 142 -196 131 -217 -10 -18 -29 -19 -523 -19 -502 0 -512 0 -525
20 -11 18 -1 35 91 163 96 132 105 142 133 139 39 -4 77 35 72 74 -3 25 8 36
111 111 62 46 115 83 117 83 2 0 54 -38 116 -83z"/>
</g>
</svg>
